<?xml version="1.0" encoding="UTF-8"?>
<svg id="_图层_1" data-name="图层 1" xmlns="http://www.w3.org/2000/svg" viewBox="0 0 1000 1000">
  <defs>
    <style>
      .cls-1 {
        fill: #fff;
      }
    </style>
  </defs>
  <rect class="cls-1" x="-2.49" y="-2.49" width="1004.99" height="1004.99"/>
  <path d="M717.3,627.16c-9.82-29.55-18.18-61.06-28.87-90.1-1.24-3.37-3.14-6.55-7.28-5.15-16.65,16.41-31.68,34.11-44.94,53.4-2.77,4.03-13.71,19.52-14.41,22.91-1.38,6.73,7.86,6.78,11.64,8.65,28.95,14.39,21,54.33-2.05,70.19-11.55,7.94-31.93,14.64-45.93,15.12-2.97.1-7.65.64-8.63-2.84-.54-1.91-1.12-8.66-1.28-11.13-2.53-38.55,6.31-86.24,24.7-120.22,27.37-50.56,77.24-81.68,110.28-127.67,57.89-80.58,60.13-178.8,31.34-271.23-2.99-9.59-9.65-30.36-14.36-38.41-.79-1.35-3.75-4.79-5.35-4.64-1.7.15-11.93,6.23-14.09,7.67-50.07,33.47-93.83,103.01-115.96,158.2-18.51,46.16-26.1,93.68-32.04,142.8-.5,4.17-.48,21.18-2.33,23.02-1.61,1.17-3.51,1.16-5.4,1.32-15.37,1.3-31.34-.96-46.56-1.12-1.85-.02-3.8,0-5.8.02-2-.03-3.95-.04-5.8-.02-15.22.16-31.19,2.42-46.56,1.12-1.89-.16-3.79-.15-5.4-1.32-1.84-1.84-1.82-18.85-2.33-23.02-5.94-49.12-13.53-96.64-32.04-142.8-22.13-55.19-65.89-124.73-115.96-158.2-2.16-1.44-12.39-7.51-14.09-7.67-1.6-.14-4.56,3.29-5.35,4.64-4.71,8.05-11.37,28.82-14.36,38.41-28.79,92.43-26.55,190.65,31.34,271.23,33.04,45.99,82.92,77.1,110.28,127.67,18.39,33.98,27.24,81.68,24.7,120.22-.16,2.47-.74,9.23-1.28,11.13-.98,3.47-5.66,2.94-8.63,2.84-14-.48-34.38-7.17-45.93-15.12-23.05-15.85-31-55.8-2.05-70.19,3.77-1.88,13.02-1.92,11.64-8.65-.69-3.38-11.64-18.88-14.41-22.91-13.26-19.3-28.28-36.99-44.94-53.4-4.14-1.4-6.04,1.78-7.28,5.15-10.7,29.04-19.05,60.55-28.87,90.1-10.73,32.3-23.85,65.54-33.44,97.96-8.04,27.19-3.59,34.26,17.95,50.92,33.14,25.64,72.51,52.34,107.62,75.5,13.99,9.23,29.78,21.6,46.93,22.38,11.49.52,39.78-3.34,50.23-7.8,4.23-1.8,7.6-6.09,8.03-10.65-.77-10.9-1.15-21.91-.83-32.85.16-5.37,3.22-15.83.84-20.41-2.85-5.48-23.93-15.8-29.75-21.97-8.14-8.62-9.7-18.98,3.9-21.95,9.98-2.17,28.31-3.22,45.82-3.41,17.52.18,35.85,1.23,45.82,3.41,13.6,2.97,12.03,13.33,3.9,21.95-5.82,6.17-26.9,16.49-29.75,21.97-2.39,4.58.68,15.05.84,20.41.32,10.94-.07,21.95-.83,32.85.43,4.55,3.8,8.85,8.03,10.65,10.45,4.46,38.74,8.32,50.23,7.8,17.15-.78,32.93-13.15,46.93-22.38,35.11-23.16,74.48-49.86,107.62-75.5,21.53-16.66,25.98-23.73,17.95-50.92-9.58-32.42-22.7-65.66-33.44-97.96Z"/>
</svg>